<svg xmlns="http://www.w3.org/2000/svg" version="1.1" xmlns:xlink="http://www.w3.org/1999/xlink" xmlns:svgjs="http://svgjs.dev/svgjs" width="1440" height="560" preserveAspectRatio="none" viewBox="0 0 1440 560"><g mask="url(&quot;#SvgjsMask1059&quot;)" fill="none"><rect width="1440" height="560" x="0" y="0" fill="rgba(235, 50, 56, 1)"></rect><path d="M0,626.42C119.764,636.676,247.654,605.745,339.313,527.981C427.342,453.297,443.566,328.749,479.982,219.201C512.509,121.353,542.445,25.362,540.669,-77.736C538.697,-192.207,539.228,-315.992,469.204,-406.568C398.072,-498.576,279.386,-540.28,165.367,-563.188C57.584,-584.843,-55.143,-575.339,-156.278,-532.236C-250.878,-491.917,-322.143,-414.488,-381.146,-330.265C-435.705,-252.386,-449.104,-158.795,-480.72,-69.117C-521.222,45.768,-630.843,155.035,-593.066,270.844C-555.847,384.942,-406.846,411.185,-303.914,472.899C-204.561,532.467,-115.42,616.536,0,626.42" fill="#ea252b"></path><path d="M1440 1002.277C1524.42 1002.216 1603.83 970.886 1676.991 928.765 1753.086 884.9549999999999 1838.474 838.191 1868.3890000000001 755.639 1897.903 674.1949999999999 1849.1970000000001 588.477 1830.997 503.783 1814.182 425.53200000000004 1821.829 334.837 1765.702 277.778 1710.1109999999999 221.264 1620.097 227.257 1542.596 210.591 1471.198 195.238 1400.424 166.2 1329.596 184 1257.501 202.11900000000003 1202.275 255.80599999999998 1150.4850000000001 309.134 1096.042 365.19399999999996 1047.3899999999999 425.856 1022.7080000000001 500.002 994.569 584.5360000000001 965.629 678.74 1000.105 760.893 1034.782 843.525 1124.225 886 1202.787 929.11 1276.829 969.739 1355.5430000000001 1002.338 1440 1002.277" fill="#ec3f45"></path></g><defs><mask id="SvgjsMask1059"><rect width="1440" height="560" fill="#ffffff"></rect></mask></defs></svg>